<?xml version="1.0" encoding="UTF-8" standalone="no"?>
<!DOCTYPE svg PUBLIC "-//W3C//DTD SVG 1.1//EN"
"http://www.w3.org/Graphics/SVG/1.1/DTD/svg11.dtd">
<svg viewBox="0 0 935 1210" version="1.1" xmlns="http://www.w3.org/2000/svg" xmlns:xlink="http://www.w3.org/1999/xlink">
<defs>
<clipPath id="c0_2"><path d="M110.6,902.8V459.4H650.4V902.8Z"/></clipPath>
<style type="text/css"><![CDATA[
.g0_2{
}
]]></style>
</defs>
<image preserveAspectRatio="none" x="130" y="1113" width="149" height="8" xlink:href="img/1.png"/>
<path fill-rule="evenodd" d="M129.9,173.9H486.6v-2.1H129.9v2.1Z" class="g0_2"/>
<path fill-rule="evenodd" d="M129.9,434H442.6v-2.1H129.9V434Z" class="g0_2"/>
<path fill-rule="evenodd" d="M129.9,484.1h61.8V482H129.9v2.1Z" class="g0_2"/>
<path fill-rule="evenodd" d="M294.9,484.1h74.9V482H294.9v2.1Z" class="g0_2"/>
<g clip-path="url(#c0_2)">
<path fill-rule="evenodd" d="M121.3,460.3h.7v-.9h-.7v.9Z" class="g0_2"/>
</g>
<path fill-rule="evenodd" d="M121.3,460h.7v-.6h-.7v.6Z" class="g0_2"/>
<path fill-rule="evenodd" d="M122,460H286.4v-.6H122v.6Z" class="g0_2"/>
<path fill-rule="evenodd" d="M286.4,460.3h.6V460h-.6v.3Z" class="g0_2"/>
<path fill-rule="evenodd" d="M286.4,460h.6v-.6h-.6v.6Z" class="g0_2"/>
<path fill-rule="evenodd" d="M287,460H451.8v-.6H287v.6Z" class="g0_2"/>
<path fill-rule="evenodd" d="M451.8,460h.6v-.6h-.6v.6Z" class="g0_2"/>
<path fill-rule="evenodd" d="M452.4,460H616.8v-.6H452.4v.6Z" class="g0_2"/>
<path fill-rule="evenodd" d="M616.8,460h.6v-.6h-.6v.6Z" class="g0_2"/>
<path fill-rule="evenodd" d="M617.4,460h21.4v-.6H617.4v.6Z" class="g0_2"/>
<g clip-path="url(#c0_2)">
<path fill-rule="evenodd" d="M638.8,460.3h.6v-.9h-.6v.9Z" class="g0_2"/>
</g>
<path fill-rule="evenodd" d="M638.8,460h.6v-.6h-.6v.6Z" class="g0_2"/>
<path fill-rule="evenodd" d="M121.3,490.8h.7V460.3h-.7v30.5Z" class="g0_2"/>
<path fill-rule="evenodd" d="M286.4,490.8h.6V460.3h-.6v30.5Z" class="g0_2"/>
<path fill-rule="evenodd" d="M638.8,490.8h.6V460.3h-.6v30.5Z" class="g0_2"/>
<path fill-rule="evenodd" d="M121.3,491.7h.7v-.9h-.7v.9Z" class="g0_2"/>
<path fill-rule="evenodd" d="M122,491.5H286.4v-.7H122v.7Z" class="g0_2"/>
<path fill-rule="evenodd" d="M286.4,491.7h.6v-.9h-.6v.9Z" class="g0_2"/>
<path fill-rule="evenodd" d="M287,491.5H451.8v-.7H287v.7Z" class="g0_2"/>
<path fill-rule="evenodd" d="M451.8,491.5h.6v-.7h-.6v.7Z" class="g0_2"/>
<path fill-rule="evenodd" d="M452.4,491.5H616.8v-.7H452.4v.7Z" class="g0_2"/>
<path fill-rule="evenodd" d="M616.8,491.5h.6v-.7h-.6v.7Z" class="g0_2"/>
<path fill-rule="evenodd" d="M617.4,491.5h21.4v-.7H617.4v.7Z" class="g0_2"/>
<path fill-rule="evenodd" d="M638.8,491.7h.6v-.9h-.6v.9Z" class="g0_2"/>
<path fill-rule="evenodd" d="M121.3,522.6h.7V491.8h-.7v30.8Z" class="g0_2"/>
<path fill-rule="evenodd" d="M286.4,522.6h.6V491.8h-.6v30.8Z" class="g0_2"/>
<path fill-rule="evenodd" d="M638.8,522.6h.6V491.8h-.6v30.8Z" class="g0_2"/>
<path fill-rule="evenodd" d="M121.3,523.5h.7v-.9h-.7v.9Z" class="g0_2"/>
<path fill-rule="evenodd" d="M122,523.2H286.4v-.6H122v.6Z" class="g0_2"/>
<path fill-rule="evenodd" d="M286.4,523.5h.6v-.9h-.6v.9Z" class="g0_2"/>
<path fill-rule="evenodd" d="M287,523.2H451.8v-.6H287v.6Z" class="g0_2"/>
<path fill-rule="evenodd" d="M451.8,523.2h.6v-.6h-.6v.6Z" class="g0_2"/>
<path fill-rule="evenodd" d="M452.4,523.2H616.8v-.6H452.4v.6Z" class="g0_2"/>
<path fill-rule="evenodd" d="M616.8,523.2h.6v-.6h-.6v.6Z" class="g0_2"/>
<path fill-rule="evenodd" d="M617.4,523.2h21.4v-.6H617.4v.6Z" class="g0_2"/>
<path fill-rule="evenodd" d="M638.8,523.5h.6v-.9h-.6v.9Z" class="g0_2"/>
<path fill-rule="evenodd" d="M121.3,554.1h.7V523.5h-.7v30.6Z" class="g0_2"/>
<path fill-rule="evenodd" d="M286.4,554.1h.6V523.5h-.6v30.6Z" class="g0_2"/>
<path fill-rule="evenodd" d="M638.8,554.1h.6V523.5h-.6v30.6Z" class="g0_2"/>
<path fill-rule="evenodd" d="M121.3,555h.7v-.9h-.7v.9Z" class="g0_2"/>
<path fill-rule="evenodd" d="M122,554.7H286.4v-.6H122v.6Z" class="g0_2"/>
<path fill-rule="evenodd" d="M286.4,555h.6v-.9h-.6v.9Z" class="g0_2"/>
<path fill-rule="evenodd" d="M287,554.7H451.8v-.6H287v.6Z" class="g0_2"/>
<path fill-rule="evenodd" d="M451.8,554.7h.6v-.6h-.6v.6Z" class="g0_2"/>
<path fill-rule="evenodd" d="M452.4,554.7H616.8v-.6H452.4v.6Z" class="g0_2"/>
<path fill-rule="evenodd" d="M616.8,554.7h.6v-.6h-.6v.6Z" class="g0_2"/>
<path fill-rule="evenodd" d="M617.4,554.7h21.4v-.6H617.4v.6Z" class="g0_2"/>
<path fill-rule="evenodd" d="M638.8,555h.6v-.9h-.6v.9Z" class="g0_2"/>
<path fill-rule="evenodd" d="M121.3,585.9h.7V555h-.7v30.9Z" class="g0_2"/>
<path fill-rule="evenodd" d="M286.4,585.9h.6V555h-.6v30.9Z" class="g0_2"/>
<path fill-rule="evenodd" d="M638.8,585.9h.6V555h-.6v30.9Z" class="g0_2"/>
<path fill-rule="evenodd" d="M121.3,586.8h.7v-.9h-.7v.9Z" class="g0_2"/>
<path fill-rule="evenodd" d="M122,586.5H286.4v-.6H122v.6Z" class="g0_2"/>
<path fill-rule="evenodd" d="M286.4,586.8h.6v-.9h-.6v.9Z" class="g0_2"/>
<path fill-rule="evenodd" d="M287,586.5H451.8v-.6H287v.6Z" class="g0_2"/>
<path fill-rule="evenodd" d="M451.8,586.5h.6v-.6h-.6v.6Z" class="g0_2"/>
<path fill-rule="evenodd" d="M452.4,586.5H616.8v-.6H452.4v.6Z" class="g0_2"/>
<path fill-rule="evenodd" d="M616.8,586.5h.6v-.6h-.6v.6Z" class="g0_2"/>
<path fill-rule="evenodd" d="M617.4,586.5h21.4v-.6H617.4v.6Z" class="g0_2"/>
<path fill-rule="evenodd" d="M638.8,586.8h.6v-.9h-.6v.9Z" class="g0_2"/>
<path fill-rule="evenodd" d="M121.3,617.4h.7V586.8h-.7v30.6Z" class="g0_2"/>
<path fill-rule="evenodd" d="M286.4,617.4h.6V586.8h-.6v30.6Z" class="g0_2"/>
<path fill-rule="evenodd" d="M638.8,617.4h.6V586.8h-.6v30.6Z" class="g0_2"/>
<path fill-rule="evenodd" d="M121.3,618.3h.7v-.9h-.7v.9Z" class="g0_2"/>
<path fill-rule="evenodd" d="M122,618H286.4v-.6H122v.6Z" class="g0_2"/>
<path fill-rule="evenodd" d="M286.4,618.3h.6v-.9h-.6v.9Z" class="g0_2"/>
<path fill-rule="evenodd" d="M287,618H451.8v-.6H287v.6Z" class="g0_2"/>
<path fill-rule="evenodd" d="M451.8,618h.6v-.6h-.6v.6Z" class="g0_2"/>
<path fill-rule="evenodd" d="M452.4,618H616.8v-.6H452.4v.6Z" class="g0_2"/>
<path fill-rule="evenodd" d="M616.8,618h.6v-.6h-.6v.6Z" class="g0_2"/>
<path fill-rule="evenodd" d="M617.4,618h21.4v-.6H617.4v.6Z" class="g0_2"/>
<path fill-rule="evenodd" d="M638.8,618.3h.6v-.9h-.6v.9Z" class="g0_2"/>
<path fill-rule="evenodd" d="M121.3,649.2h.7V618.3h-.7v30.9Z" class="g0_2"/>
<path fill-rule="evenodd" d="M286.4,649.2h.6V618.3h-.6v30.9Z" class="g0_2"/>
<path fill-rule="evenodd" d="M638.8,649.2h.6V618.3h-.6v30.9Z" class="g0_2"/>
<path fill-rule="evenodd" d="M121.3,650.1h.7v-.9h-.7v.9Z" class="g0_2"/>
<path fill-rule="evenodd" d="M122,649.8H286.4v-.6H122v.6Z" class="g0_2"/>
<path fill-rule="evenodd" d="M286.4,650.1h.6v-.9h-.6v.9Z" class="g0_2"/>
<path fill-rule="evenodd" d="M287,649.8H451.8v-.6H287v.6Z" class="g0_2"/>
<path fill-rule="evenodd" d="M451.8,649.8h.6v-.6h-.6v.6Z" class="g0_2"/>
<path fill-rule="evenodd" d="M452.4,649.8H616.8v-.6H452.4v.6Z" class="g0_2"/>
<path fill-rule="evenodd" d="M616.8,649.8h.6v-.6h-.6v.6Z" class="g0_2"/>
<path fill-rule="evenodd" d="M617.4,649.8h21.4v-.6H617.4v.6Z" class="g0_2"/>
<path fill-rule="evenodd" d="M638.8,650.1h.6v-.9h-.6v.9Z" class="g0_2"/>
<path fill-rule="evenodd" d="M121.3,680.6h.7V650.1h-.7v30.5Z" class="g0_2"/>
<path fill-rule="evenodd" d="M286.4,680.6h.6V650.1h-.6v30.5Z" class="g0_2"/>
<path fill-rule="evenodd" d="M638.8,680.6h.6V650.1h-.6v30.5Z" class="g0_2"/>
<path fill-rule="evenodd" d="M121.3,681.5h.7v-.9h-.7v.9Z" class="g0_2"/>
<path fill-rule="evenodd" d="M122,681.2H286.4v-.6H122v.6Z" class="g0_2"/>
<path fill-rule="evenodd" d="M286.4,681.5h.6v-.9h-.6v.9Z" class="g0_2"/>
<path fill-rule="evenodd" d="M287,681.2H451.8v-.6H287v.6Z" class="g0_2"/>
<path fill-rule="evenodd" d="M451.8,681.2h.6v-.6h-.6v.6Z" class="g0_2"/>
<path fill-rule="evenodd" d="M452.4,681.2H616.8v-.6H452.4v.6Z" class="g0_2"/>
<path fill-rule="evenodd" d="M616.8,681.2h.6v-.6h-.6v.6Z" class="g0_2"/>
<path fill-rule="evenodd" d="M617.4,681.2h21.4v-.6H617.4v.6Z" class="g0_2"/>
<path fill-rule="evenodd" d="M638.8,681.5h.6v-.9h-.6v.9Z" class="g0_2"/>
<path fill-rule="evenodd" d="M121.3,712.4h.7V681.5h-.7v30.9Z" class="g0_2"/>
<path fill-rule="evenodd" d="M286.4,712.4h.6V681.5h-.6v30.9Z" class="g0_2"/>
<path fill-rule="evenodd" d="M638.8,712.4h.6V681.5h-.6v30.9Z" class="g0_2"/>
<path fill-rule="evenodd" d="M121.3,713.3h.7v-.9h-.7v.9Z" class="g0_2"/>
<path fill-rule="evenodd" d="M122,713H286.4v-.6H122v.6Z" class="g0_2"/>
<path fill-rule="evenodd" d="M286.4,713.3h.6v-.9h-.6v.9Z" class="g0_2"/>
<path fill-rule="evenodd" d="M287,713H451.8v-.6H287v.6Z" class="g0_2"/>
<path fill-rule="evenodd" d="M451.8,713h.6v-.6h-.6v.6Z" class="g0_2"/>
<path fill-rule="evenodd" d="M452.4,713H616.8v-.6H452.4v.6Z" class="g0_2"/>
<path fill-rule="evenodd" d="M616.8,713h.6v-.6h-.6v.6Z" class="g0_2"/>
<path fill-rule="evenodd" d="M617.4,713h21.4v-.6H617.4v.6Z" class="g0_2"/>
<path fill-rule="evenodd" d="M638.8,713.3h.6v-.9h-.6v.9Z" class="g0_2"/>
<path fill-rule="evenodd" d="M121.3,743.9h.7V713.3h-.7v30.6Z" class="g0_2"/>
<path fill-rule="evenodd" d="M286.4,743.9h.6V713.3h-.6v30.6Z" class="g0_2"/>
<path fill-rule="evenodd" d="M638.8,743.9h.6V713.3h-.6v30.6Z" class="g0_2"/>
<path fill-rule="evenodd" d="M121.3,744.8h.7v-.9h-.7v.9Z" class="g0_2"/>
<path fill-rule="evenodd" d="M122,744.5H286.4v-.6H122v.6Z" class="g0_2"/>
<path fill-rule="evenodd" d="M286.4,744.8h.6v-.9h-.6v.9Z" class="g0_2"/>
<path fill-rule="evenodd" d="M287,744.5H451.8v-.6H287v.6Z" class="g0_2"/>
<path fill-rule="evenodd" d="M451.8,744.5h.6v-.6h-.6v.6Z" class="g0_2"/>
<path fill-rule="evenodd" d="M452.4,744.5H616.8v-.6H452.4v.6Z" class="g0_2"/>
<path fill-rule="evenodd" d="M616.8,744.5h.6v-.6h-.6v.6Z" class="g0_2"/>
<path fill-rule="evenodd" d="M617.4,744.5h21.4v-.6H617.4v.6Z" class="g0_2"/>
<path fill-rule="evenodd" d="M638.8,744.8h.6v-.9h-.6v.9Z" class="g0_2"/>
<path fill-rule="evenodd" d="M121.3,775.7h.7V744.8h-.7v30.9Z" class="g0_2"/>
<path fill-rule="evenodd" d="M286.4,775.7h.6V744.8h-.6v30.9Z" class="g0_2"/>
<path fill-rule="evenodd" d="M638.8,775.7h.6V744.8h-.6v30.9Z" class="g0_2"/>
<path fill-rule="evenodd" d="M121.3,776.6h.7v-.9h-.7v.9Z" class="g0_2"/>
<path fill-rule="evenodd" d="M122,776.3H286.4v-.6H122v.6Z" class="g0_2"/>
<path fill-rule="evenodd" d="M286.4,776.6h.6v-.9h-.6v.9Z" class="g0_2"/>
<path fill-rule="evenodd" d="M287,776.3H451.8v-.6H287v.6Z" class="g0_2"/>
<path fill-rule="evenodd" d="M451.8,776.3h.6v-.6h-.6v.6Z" class="g0_2"/>
<path fill-rule="evenodd" d="M452.4,776.3H616.8v-.6H452.4v.6Z" class="g0_2"/>
<path fill-rule="evenodd" d="M616.8,776.3h.6v-.6h-.6v.6Z" class="g0_2"/>
<path fill-rule="evenodd" d="M617.4,776.3h21.4v-.6H617.4v.6Z" class="g0_2"/>
<path fill-rule="evenodd" d="M638.8,776.6h.6v-.9h-.6v.9Z" class="g0_2"/>
<path fill-rule="evenodd" d="M121.3,807.2h.7V776.6h-.7v30.6Z" class="g0_2"/>
<path fill-rule="evenodd" d="M286.4,807.2h.6V776.6h-.6v30.6Z" class="g0_2"/>
<path fill-rule="evenodd" d="M638.8,807.2h.6V776.6h-.6v30.6Z" class="g0_2"/>
<path fill-rule="evenodd" d="M121.3,808.1h.7v-.9h-.7v.9Z" class="g0_2"/>
<path fill-rule="evenodd" d="M122,807.8H286.4v-.6H122v.6Z" class="g0_2"/>
<path fill-rule="evenodd" d="M286.4,808.1h.6v-.9h-.6v.9Z" class="g0_2"/>
<path fill-rule="evenodd" d="M287,807.8H451.8v-.6H287v.6Z" class="g0_2"/>
<path fill-rule="evenodd" d="M451.8,807.8h.6v-.6h-.6v.6Z" class="g0_2"/>
<path fill-rule="evenodd" d="M452.4,807.8H616.8v-.6H452.4v.6Z" class="g0_2"/>
<path fill-rule="evenodd" d="M616.8,807.8h.6v-.6h-.6v.6Z" class="g0_2"/>
<path fill-rule="evenodd" d="M617.4,807.8h21.4v-.6H617.4v.6Z" class="g0_2"/>
<path fill-rule="evenodd" d="M638.8,808.1h.6v-.9h-.6v.9Z" class="g0_2"/>
<path fill-rule="evenodd" d="M121.3,838.9h.7V808.1h-.7v30.8Z" class="g0_2"/>
<path fill-rule="evenodd" d="M286.4,838.9h.6V808.1h-.6v30.8Z" class="g0_2"/>
<path fill-rule="evenodd" d="M638.8,838.9h.6V808.1h-.6v30.8Z" class="g0_2"/>
<path fill-rule="evenodd" d="M121.3,839.9h.7v-1h-.7v1Z" class="g0_2"/>
<path fill-rule="evenodd" d="M122,839.6H286.4v-.7H122v.7Z" class="g0_2"/>
<path fill-rule="evenodd" d="M286.4,839.9h.6v-1h-.6v1Z" class="g0_2"/>
<path fill-rule="evenodd" d="M287,839.6H451.8v-.7H287v.7Z" class="g0_2"/>
<path fill-rule="evenodd" d="M451.8,839.6h.6v-.7h-.6v.7Z" class="g0_2"/>
<path fill-rule="evenodd" d="M452.4,839.6H616.8v-.7H452.4v.7Z" class="g0_2"/>
<path fill-rule="evenodd" d="M616.8,839.6h.6v-.7h-.6v.7Z" class="g0_2"/>
<path fill-rule="evenodd" d="M617.4,839.6h21.4v-.7H617.4v.7Z" class="g0_2"/>
<path fill-rule="evenodd" d="M638.8,839.9h.6v-1h-.6v1Z" class="g0_2"/>
<path fill-rule="evenodd" d="M121.3,870.4h.7V839.9h-.7v30.5Z" class="g0_2"/>
<path fill-rule="evenodd" d="M286.4,870.4h.6V839.9h-.6v30.5Z" class="g0_2"/>
<path fill-rule="evenodd" d="M638.8,870.4h.6V839.9h-.6v30.5Z" class="g0_2"/>
<path fill-rule="evenodd" d="M121.3,871.3h.7v-.9h-.7v.9Z" class="g0_2"/>
<path fill-rule="evenodd" d="M122,871H286.4v-.6H122v.6Z" class="g0_2"/>
<path fill-rule="evenodd" d="M286.4,871.3h.6v-.9h-.6v.9Z" class="g0_2"/>
<path fill-rule="evenodd" d="M287,871H451.8v-.6H287v.6Z" class="g0_2"/>
<path fill-rule="evenodd" d="M451.8,871h.6v-.6h-.6v.6Z" class="g0_2"/>
<path fill-rule="evenodd" d="M452.4,871H616.8v-.6H452.4v.6Z" class="g0_2"/>
<path fill-rule="evenodd" d="M616.8,871h.6v-.6h-.6v.6Z" class="g0_2"/>
<path fill-rule="evenodd" d="M617.4,871h21.4v-.6H617.4v.6Z" class="g0_2"/>
<path fill-rule="evenodd" d="M638.8,871.3h.6v-.9h-.6v.9Z" class="g0_2"/>
<path fill-rule="evenodd" d="M121.3,902.2h.7V871.3h-.7v30.9Z" class="g0_2"/>
<path fill-rule="evenodd" d="M121.3,902.8h.7v-.6h-.7v.6Z" class="g0_2"/>
<path fill-rule="evenodd" d="M121.3,902.8h.7v-.6h-.7v.6Z" class="g0_2"/>
<path fill-rule="evenodd" d="M122,902.8H286.4v-.6H122v.6Z" class="g0_2"/>
<path fill-rule="evenodd" d="M286.4,902.2h.6V871.3h-.6v30.9Z" class="g0_2"/>
<path fill-rule="evenodd" d="M286.4,902.8h.6v-.6h-.6v.6Z" class="g0_2"/>
<path fill-rule="evenodd" d="M287,902.8H451.8v-.6H287v.6Z" class="g0_2"/>
<path fill-rule="evenodd" d="M450.8,902.8h.7v-.6h-.7v.6Z" class="g0_2"/>
<path fill-rule="evenodd" d="M451.5,902.8H616.8v-.6H451.5v.6Z" class="g0_2"/>
<path fill-rule="evenodd" d="M615.9,902.8h.6v-.6h-.6v.6Z" class="g0_2"/>
<path fill-rule="evenodd" d="M616.5,902.8h22.3v-.6H616.5v.6Z" class="g0_2"/>
<path fill-rule="evenodd" d="M638.8,902.2h.6V871.3h-.6v30.9Z" class="g0_2"/>
<path fill-rule="evenodd" d="M638.8,902.8h.6v-.6h-.6v.6Z" class="g0_2"/>
<path fill-rule="evenodd" d="M638.8,902.8h.6v-.6h-.6v.6Z" class="g0_2"/>
</svg>