<?xml version="1.0" encoding="UTF-8" standalone="no"?>
<!DOCTYPE svg PUBLIC "-//W3C//DTD SVG 1.1//EN"
"http://www.w3.org/Graphics/SVG/1.1/DTD/svg11.dtd">
<svg viewBox="0 0 935 1210" version="1.1" xmlns="http://www.w3.org/2000/svg" xmlns:xlink="http://www.w3.org/1999/xlink">
<defs>
<style type="text/css"><![CDATA[
.g0_1{
}
.g1_1{
fill: #FFFFFF;
}
]]></style>
</defs>
<image preserveAspectRatio="none" x="130" y="1113" width="149" height="8" xlink:href="img/1.png"/>
<image preserveAspectRatio="none" x="75" y="55" width="118" height="102" xlink:href="img/2.png"/>
<path fill-rule="evenodd" d="M445.3,180.6h3.4v-3.3h-3.4v3.3Z" class="g0_1"/>
<path fill-rule="evenodd" d="M445.3,180.6h3.4v-3.3h-3.4v3.3Z" class="g0_1"/>
<path fill-rule="evenodd" d="M448.7,180.6H549.2v-3.3H448.7v3.3Z" class="g0_1"/>
<path fill-rule="evenodd" d="M549.2,180.6h3.4v-3.3h-3.4v3.3Z" class="g0_1"/>
<path fill-rule="evenodd" d="M552.6,180.6h31.8v-3.3H552.6v3.3Z" class="g0_1"/>
<path fill-rule="evenodd" d="M584.4,180.6h3.4v-3.3h-3.4v3.3Z" class="g0_1"/>
<path fill-rule="evenodd" d="M587.8,180.6h31.8v-3.3H587.8v3.3Z" class="g0_1"/>
<path fill-rule="evenodd" d="M619.5,180.6h3.4v-3.3h-3.4v3.3Z" class="g0_1"/>
<path fill-rule="evenodd" d="M622.9,180.6h31.8v-3.3H622.9v3.3Z" class="g0_1"/>
<path fill-rule="evenodd" d="M654.7,180.6H658v-3.3h-3.3v3.3Z" class="g0_1"/>
<path fill-rule="evenodd" d="M658.1,180.6h31.8v-3.3H658.1v3.3Z" class="g0_1"/>
<path fill-rule="evenodd" d="M689.9,180.6h3.3v-3.3h-3.3v3.3Z" class="g0_1"/>
<path fill-rule="evenodd" d="M693.2,180.6H725v-3.3H693.2v3.3Z" class="g0_1"/>
<path fill-rule="evenodd" d="M725,180.6h3.4v-3.3H725v3.3Z" class="g0_1"/>
<path fill-rule="evenodd" d="M728.4,180.6h31.7v-3.3H728.4v3.3Z" class="g0_1"/>
<path fill-rule="evenodd" d="M760.1,180.6h3.4v-3.3h-3.4v3.3Z" class="g0_1"/>
<path fill-rule="evenodd" d="M763.5,180.6h31.8v-3.3H763.5v3.3Z" class="g0_1"/>
<path fill-rule="evenodd" d="M795.3,180.6h3.4v-3.3h-3.4v3.3Z" class="g0_1"/>
<path fill-rule="evenodd" d="M798.7,180.6h31.8v-3.3H798.7v3.3Z" class="g0_1"/>
<path fill-rule="evenodd" d="M830.5,180.6h3.3v-3.3h-3.3v3.3Z" class="g0_1"/>
<path fill-rule="evenodd" d="M830.5,180.6h3.3v-3.3h-3.3v3.3Z" class="g0_1"/>
<path fill-rule="evenodd" d="M445.3,215.1h3.4V180.6h-3.4v34.5Z" class="g0_1"/>
<path fill-rule="evenodd" d="M445.3,218.5h3.4v-3.3h-3.4v3.3Z" class="g0_1"/>
<path fill-rule="evenodd" d="M445.3,218.5h3.4v-3.3h-3.4v3.3Z" class="g0_1"/>
<path fill-rule="evenodd" d="M448.7,218.5H549.2v-3.3H448.7v3.3Z" class="g0_1"/>
<path fill-rule="evenodd" d="M549.2,215.1h3.4V180.6h-3.4v34.5Z" class="g0_1"/>
<path fill-rule="evenodd" d="M549.2,218.5h3.4v-3.3h-3.4v3.3Z" class="g0_1"/>
<path fill-rule="evenodd" d="M552.6,218.5h31.8v-3.3H552.6v3.3Z" class="g0_1"/>
<path fill-rule="evenodd" d="M584.4,215.1h3.4V180.6h-3.4v34.5Z" class="g0_1"/>
<path fill-rule="evenodd" d="M584.4,218.5h3.4v-3.3h-3.4v3.3Z" class="g0_1"/>
<path fill-rule="evenodd" d="M587.8,218.5h31.8v-3.3H587.8v3.3Z" class="g0_1"/>
<path fill-rule="evenodd" d="M619.5,215.1h3.4V180.6h-3.4v34.5Z" class="g0_1"/>
<path fill-rule="evenodd" d="M619.5,218.5h3.4v-3.3h-3.4v3.3Z" class="g0_1"/>
<path fill-rule="evenodd" d="M622.9,218.5h31.8v-3.3H622.9v3.3Z" class="g0_1"/>
<path fill-rule="evenodd" d="M654.7,215.1H658V180.6h-3.3v34.5Z" class="g0_1"/>
<path fill-rule="evenodd" d="M654.7,218.5H658v-3.3h-3.3v3.3Z" class="g0_1"/>
<path fill-rule="evenodd" d="M658.1,218.5h31.8v-3.3H658.1v3.3Z" class="g0_1"/>
<path fill-rule="evenodd" d="M689.9,215.1h3.3V180.6h-3.3v34.5Z" class="g0_1"/>
<path fill-rule="evenodd" d="M689.9,218.5h3.3v-3.3h-3.3v3.3Z" class="g0_1"/>
<path fill-rule="evenodd" d="M693.2,218.5H725v-3.3H693.2v3.3Z" class="g0_1"/>
<path fill-rule="evenodd" d="M725,215.1h3.4V180.6H725v34.5Z" class="g0_1"/>
<path fill-rule="evenodd" d="M725,218.5h3.4v-3.3H725v3.3Z" class="g0_1"/>
<path fill-rule="evenodd" d="M728.4,218.5h31.7v-3.3H728.4v3.3Z" class="g0_1"/>
<path fill-rule="evenodd" d="M760.1,215.1h3.4V180.6h-3.4v34.5Z" class="g0_1"/>
<path fill-rule="evenodd" d="M760.1,218.5h3.4v-3.3h-3.4v3.3Z" class="g0_1"/>
<path fill-rule="evenodd" d="M763.5,218.5h31.8v-3.3H763.5v3.3Z" class="g0_1"/>
<path fill-rule="evenodd" d="M795.3,215.1h3.4V180.6h-3.4v34.5Z" class="g0_1"/>
<path fill-rule="evenodd" d="M795.3,218.5h3.4v-3.3h-3.4v3.3Z" class="g0_1"/>
<path fill-rule="evenodd" d="M798.7,218.5h31.8v-3.3H798.7v3.3Z" class="g0_1"/>
<path fill-rule="evenodd" d="M830.5,215.1h3.3V180.6h-3.3v34.5Z" class="g0_1"/>
<path fill-rule="evenodd" d="M830.5,218.5h3.3v-3.3h-3.3v3.3Z" class="g0_1"/>
<path fill-rule="evenodd" d="M830.5,218.5h3.3v-3.3h-3.3v3.3Z" class="g0_1"/>
<path fill-rule="evenodd" d="M59,240.5h.6v-.9H59v.9Z" class="g0_1"/>
<path fill-rule="evenodd" d="M59,240.2h.6v-.6H59v.6Z" class="g0_1"/>
<path fill-rule="evenodd" d="M59.6,240.2h493v-.6H59.6v.6Z" class="g0_1"/>
<path fill-rule="evenodd" d="M552.6,240.5h.7v-.3h-.7v.3Z" class="g0_1"/>
<path fill-rule="evenodd" d="M552.6,240.2h.7v-.6h-.7v.6Z" class="g0_1"/>
<path fill-rule="evenodd" d="M553.3,240.2H897.1v-.6H553.3v.6Z" class="g0_1"/>
<path fill-rule="evenodd" d="M897.1,240.5h.6v-.9h-.6v.9Z" class="g0_1"/>
<path fill-rule="evenodd" d="M897.1,240.2h.6v-.6h-.6v.6Z" class="g0_1"/>
<path fill-rule="evenodd" d="M59,328.2h.6V240.5H59v87.7Z" class="g0_1"/>
<path fill-rule="evenodd" d="M552.6,328.2h.7V240.5h-.7v87.7Z" class="g0_1"/>
<path fill-rule="evenodd" d="M897.1,328.2h.6V240.5h-.6v87.7Z" class="g0_1"/>
<path fill-rule="evenodd" d="M59,329.2h.6v-1H59v1Z" class="g0_1"/>
<path fill-rule="evenodd" d="M59.6,328.9H292.8v-.7H59.6v.7Z" class="g0_1"/>
<path fill-rule="evenodd" d="M292.8,329.2h.6v-.3h-.6v.3Z" class="g0_1"/>
<path fill-rule="evenodd" d="M292.8,328.9h.6v-.7h-.6v.7Z" class="g0_1"/>
<path fill-rule="evenodd" d="M293.4,328.9H552.6v-.7H293.4v.7Z" class="g0_1"/>
<path fill-rule="evenodd" d="M552.6,329.2h.7v-1h-.7v1Z" class="g0_1"/>
<path fill-rule="evenodd" d="M553.3,328.9H897.1v-.7H553.3v.7Z" class="g0_1"/>
<path fill-rule="evenodd" d="M897.1,329.2h.6v-1h-.6v1Z" class="g0_1"/>
<path fill-rule="evenodd" d="M59,399.1h.6V329.2H59v69.9Z" class="g0_1"/>
<path fill-rule="evenodd" d="M292.8,399.1h.6V329.2h-.6v69.9Z" class="g0_1"/>
<path fill-rule="evenodd" d="M552.6,399.1h.7V329.2h-.7v69.9Z" class="g0_1"/>
<path fill-rule="evenodd" d="M897.1,399.1h.6V329.2h-.6v69.9Z" class="g0_1"/>
<path fill-rule="evenodd" d="M59,400h.6v-.9H59v.9Z" class="g0_1"/>
<path fill-rule="evenodd" d="M59.6,399.7H292.8v-.6H59.6v.6Z" class="g0_1"/>
<path fill-rule="evenodd" d="M292.8,399.7h.6v-.6h-.6v.6Z" class="g0_1"/>
<path fill-rule="evenodd" d="M293.4,399.7H552.6v-.6H293.4v.6Z" class="g0_1"/>
<path fill-rule="evenodd" d="M552.6,399.7h.7v-.6h-.7v.6Z" class="g0_1"/>
<path fill-rule="evenodd" d="M553.3,399.7H897.1v-.6H553.3v.6Z" class="g0_1"/>
<path fill-rule="evenodd" d="M897.1,400h.6v-.9h-.6v.9Z" class="g0_1"/>
<path fill-rule="evenodd" d="M59,1042.8h.6V400H59v642.8Z" class="g0_1"/>
<path fill-rule="evenodd" d="M59,1043.4h.6v-.6H59v.6Z" class="g0_1"/>
<path fill-rule="evenodd" d="M59,1043.4h.6v-.6H59v.6Z" class="g0_1"/>
<path fill-rule="evenodd" d="M59.6,1043.4H897.1v-.6H59.6v.6Z" class="g0_1"/>
<path fill-rule="evenodd" d="M897.1,1042.8h.6V400h-.6v642.8Z" class="g0_1"/>
<path fill-rule="evenodd" d="M897.1,1043.4h.6v-.6h-.6v.6Z" class="g0_1"/>
<path fill-rule="evenodd" d="M897.1,1043.4h.6v-.6h-.6v.6Z" class="g0_1"/>
<path fill-rule="evenodd" d="M176.9,157H779.6V55H176.9V157Z" class="g1_1"/>
</svg>