<?xml version="1.0" encoding="UTF-8" standalone="no"?>
<!DOCTYPE svg PUBLIC "-//W3C//DTD SVG 1.1//EN"
"http://www.w3.org/Graphics/SVG/1.1/DTD/svg11.dtd">
<svg viewBox="0 0 935 1210" version="1.1" xmlns="http://www.w3.org/2000/svg" xmlns:xlink="http://www.w3.org/1999/xlink">
<defs>
<style type="text/css"><![CDATA[
.g0{
fill: #FFFF00;
}
.g1{
}
]]></style>
</defs>
<image preserveAspectRatio="none" x="130" y="1113" width="149" height="8" xlink:href="img/1.png"/>
<path fill-rule="evenodd" d="M232.9,139.4H482.6V118.3H232.9v21.1Z" class="g0"/>
<path fill-rule="evenodd" d="M121.3,414.5h.7v-1h-.7v1Z" class="g1"/>
<path fill-rule="evenodd" d="M121.3,414.2h.7v-.7h-.7v.7Z" class="g1"/>
<path fill-rule="evenodd" d="M122,414.2H834.7v-.7H122v.7Z" class="g1"/>
<path fill-rule="evenodd" d="M834.7,414.5h.7v-1h-.7v1Z" class="g1"/>
<path fill-rule="evenodd" d="M834.7,414.2h.7v-.7h-.7v.7Z" class="g1"/>
<path fill-rule="evenodd" d="M121.3,435.5h.7v-21h-.7v21Z" class="g1"/>
<path fill-rule="evenodd" d="M834.7,435.5h.7v-21h-.7v21Z" class="g1"/>
<path fill-rule="evenodd" d="M121.3,436.5h.7v-1h-.7v1Z" class="g1"/>
<path fill-rule="evenodd" d="M122,436.2H834.7v-.7H122v.7Z" class="g1"/>
<path fill-rule="evenodd" d="M834.7,436.5h.7v-1h-.7v1Z" class="g1"/>
<path fill-rule="evenodd" d="M121.3,466.4h.7v-30h-.7v30Z" class="g1"/>
<path fill-rule="evenodd" d="M834.7,466.4h.7v-30h-.7v30Z" class="g1"/>
<path fill-rule="evenodd" d="M129.9,488.1h18.3v-1.8H129.9v1.8Z" class="g1"/>
<path fill-rule="evenodd" d="M129.9,509.2h96.9v-1.9H129.9v1.9Z" class="g1"/>
<path fill-rule="evenodd" d="M246.7,488.1H313v-1.8H246.7v1.8Z" class="g1"/>
<path fill-rule="evenodd" d="M334.7,488.1h64.2v-1.8H334.7v1.8Z" class="g1"/>
<path fill-rule="evenodd" d="M436.5,488.1h52.8v-1.8H436.5v1.8Z" class="g1"/>
<path fill-rule="evenodd" d="M436.5,509.2h46.7v-1.9H436.5v1.9Z" class="g1"/>
<path fill-rule="evenodd" d="M537.9,488.1h52.9v-1.8H537.9v1.8Z" class="g1"/>
<path fill-rule="evenodd" d="M537.9,509.2h71.3v-1.9H537.9v1.9Z" class="g1"/>
<path fill-rule="evenodd" d="M665.1,488.1h18.4v-1.8H665.1v1.8Z" class="g1"/>
<path fill-rule="evenodd" d="M665.1,509.2H721v-1.9H665.1v1.9Z" class="g1"/>
<path fill-rule="evenodd" d="M751.3,488.1h18.3v-1.8H751.3v1.8Z" class="g1"/>
<path fill-rule="evenodd" d="M751.3,509.2h65.1v-1.9H751.3v1.9Z" class="g1"/>
<path fill-rule="evenodd" d="M121.3,467.3h.7v-.9h-.7v.9Z" class="g1"/>
<path fill-rule="evenodd" d="M122,467H237.8v-.6H122v.6Z" class="g1"/>
<path fill-rule="evenodd" d="M237.8,467.3h.6V467h-.6v.3Z" class="g1"/>
<path fill-rule="evenodd" d="M237.8,467h.6v-.6h-.6v.6Z" class="g1"/>
<path fill-rule="evenodd" d="M238.4,467h87.7v-.6H238.4v.6Z" class="g1"/>
<path fill-rule="evenodd" d="M326.1,467.3h.7V467h-.7v.3Z" class="g1"/>
<path fill-rule="evenodd" d="M326.1,467h.7v-.6h-.7v.6Z" class="g1"/>
<path fill-rule="evenodd" d="M326.8,467H427.9v-.6H326.8v.6Z" class="g1"/>
<path fill-rule="evenodd" d="M427.9,467.3h.6V467h-.6v.3Z" class="g1"/>
<path fill-rule="evenodd" d="M427.9,467h.6v-.6h-.6v.6Z" class="g1"/>
<path fill-rule="evenodd" d="M428.5,467H529.4v-.6H428.5v.6Z" class="g1"/>
<path fill-rule="evenodd" d="M529.4,467.3h.6V467h-.6v.3Z" class="g1"/>
<path fill-rule="evenodd" d="M529.4,467h.6v-.6h-.6v.6Z" class="g1"/>
<path fill-rule="evenodd" d="M530,467H656.5v-.6H530v.6Z" class="g1"/>
<path fill-rule="evenodd" d="M656.5,467.3h.6V467h-.6v.3Z" class="g1"/>
<path fill-rule="evenodd" d="M656.5,467h.6v-.6h-.6v.6Z" class="g1"/>
<path fill-rule="evenodd" d="M657.1,467h85.3v-.6H657.1v.6Z" class="g1"/>
<path fill-rule="evenodd" d="M742.4,467.3h.6V467h-.6v.3Z" class="g1"/>
<path fill-rule="evenodd" d="M742.4,467h.6v-.6h-.6v.6Z" class="g1"/>
<path fill-rule="evenodd" d="M743,467h91.7v-.6H743v.6Z" class="g1"/>
<path fill-rule="evenodd" d="M834.7,467.3h.7v-.9h-.7v.9Z" class="g1"/>
<path fill-rule="evenodd" d="M121.3,509.5h.7V467.3h-.7v42.2Z" class="g1"/>
<path fill-rule="evenodd" d="M237.8,509.5h.6V467.3h-.6v42.2Z" class="g1"/>
<path fill-rule="evenodd" d="M326.1,509.5h.7V467.3h-.7v42.2Z" class="g1"/>
<path fill-rule="evenodd" d="M427.9,509.5h.6V467.3h-.6v42.2Z" class="g1"/>
<path fill-rule="evenodd" d="M529.4,509.5h.6V467.3h-.6v42.2Z" class="g1"/>
<path fill-rule="evenodd" d="M656.5,509.5h.6V467.3h-.6v42.2Z" class="g1"/>
<path fill-rule="evenodd" d="M742.4,509.5h.6V467.3h-.6v42.2Z" class="g1"/>
<path fill-rule="evenodd" d="M834.7,509.5h.7V467.3h-.7v42.2Z" class="g1"/>
<path fill-rule="evenodd" d="M121.3,510.4h.7v-.9h-.7v.9Z" class="g1"/>
<path fill-rule="evenodd" d="M122,510.1H237.8v-.6H122v.6Z" class="g1"/>
<path fill-rule="evenodd" d="M237.8,510.4h.6v-.9h-.6v.9Z" class="g1"/>
<path fill-rule="evenodd" d="M238.4,510.1h87.7v-.6H238.4v.6Z" class="g1"/>
<path fill-rule="evenodd" d="M326.1,510.4h.7v-.9h-.7v.9Z" class="g1"/>
<path fill-rule="evenodd" d="M326.8,510.1H427.9v-.6H326.8v.6Z" class="g1"/>
<path fill-rule="evenodd" d="M427.9,510.4h.6v-.9h-.6v.9Z" class="g1"/>
<path fill-rule="evenodd" d="M428.5,510.1H529.4v-.6H428.5v.6Z" class="g1"/>
<path fill-rule="evenodd" d="M529.4,510.4h.6v-.9h-.6v.9Z" class="g1"/>
<path fill-rule="evenodd" d="M530,510.1H656.5v-.6H530v.6Z" class="g1"/>
<path fill-rule="evenodd" d="M656.5,510.4h.6v-.9h-.6v.9Z" class="g1"/>
<path fill-rule="evenodd" d="M657.1,510.1h85.3v-.6H657.1v.6Z" class="g1"/>
<path fill-rule="evenodd" d="M742.4,510.4h.6v-.9h-.6v.9Z" class="g1"/>
<path fill-rule="evenodd" d="M743,510.1h91.7v-.6H743v.6Z" class="g1"/>
<path fill-rule="evenodd" d="M834.7,510.4h.7v-.9h-.7v.9Z" class="g1"/>
<path fill-rule="evenodd" d="M121.3,552.6h.7V510.4h-.7v42.2Z" class="g1"/>
<path fill-rule="evenodd" d="M121.3,553.2h.7v-.6h-.7v.6Z" class="g1"/>
<path fill-rule="evenodd" d="M121.3,553.2h.7v-.6h-.7v.6Z" class="g1"/>
<path fill-rule="evenodd" d="M122,553.2H237.8v-.6H122v.6Z" class="g1"/>
<path fill-rule="evenodd" d="M237.8,552.6h.6V510.4h-.6v42.2Z" class="g1"/>
<path fill-rule="evenodd" d="M237.8,553.2h.6v-.6h-.6v.6Z" class="g1"/>
<path fill-rule="evenodd" d="M238.4,553.2h87.7v-.6H238.4v.6Z" class="g1"/>
<path fill-rule="evenodd" d="M326.1,552.6h.7V510.4h-.7v42.2Z" class="g1"/>
<path fill-rule="evenodd" d="M326.1,553.2h.7v-.6h-.7v.6Z" class="g1"/>
<path fill-rule="evenodd" d="M326.8,553.2H427.9v-.6H326.8v.6Z" class="g1"/>
<path fill-rule="evenodd" d="M427.9,552.6h.6V510.4h-.6v42.2Z" class="g1"/>
<path fill-rule="evenodd" d="M427.9,553.2h.6v-.6h-.6v.6Z" class="g1"/>
<path fill-rule="evenodd" d="M428.5,553.2H529.4v-.6H428.5v.6Z" class="g1"/>
<path fill-rule="evenodd" d="M529.4,552.6h.6V510.4h-.6v42.2Z" class="g1"/>
<path fill-rule="evenodd" d="M529.4,553.2h.6v-.6h-.6v.6Z" class="g1"/>
<path fill-rule="evenodd" d="M530,553.2H656.5v-.6H530v.6Z" class="g1"/>
<path fill-rule="evenodd" d="M656.5,552.6h.6V510.4h-.6v42.2Z" class="g1"/>
<path fill-rule="evenodd" d="M656.5,553.2h.6v-.6h-.6v.6Z" class="g1"/>
<path fill-rule="evenodd" d="M657.1,553.2h85.3v-.6H657.1v.6Z" class="g1"/>
<path fill-rule="evenodd" d="M742.4,552.6h.6V510.4h-.6v42.2Z" class="g1"/>
<path fill-rule="evenodd" d="M742.4,553.2h.6v-.6h-.6v.6Z" class="g1"/>
<path fill-rule="evenodd" d="M743,553.2h91.7v-.6H743v.6Z" class="g1"/>
<path fill-rule="evenodd" d="M834.7,552.6h.7V510.4h-.7v42.2Z" class="g1"/>
<path fill-rule="evenodd" d="M834.7,553.2h.7v-.6h-.7v.6Z" class="g1"/>
<path fill-rule="evenodd" d="M834.7,553.2h.7v-.6h-.7v.6Z" class="g1"/>
<path fill-rule="evenodd" d="M129.9,615.8H237.8v-1.2H129.9v1.2Z" class="g1"/>
</svg>