<?xml version="1.0" encoding="UTF-8" standalone="no"?>
<!DOCTYPE svg PUBLIC "-//W3C//DTD SVG 1.1//EN"
"http://www.w3.org/Graphics/SVG/1.1/DTD/svg11.dtd">
<svg viewBox="0 0 909 1286" version="1.1" xmlns="http://www.w3.org/2000/svg" xmlns:xlink="http://www.w3.org/1999/xlink">
<defs>
<clipPath id="c0"><path d="M78.3,1097.2V84H829.6V1097.2Z"/></clipPath>
<style type="text/css"><![CDATA[
.g0{
fill: #FFFFFF;
}
.g1{
fill: #FFFF00;
}
.g2{
fill: #BEBEBE;
}
.g3{
fill: #FFC7CE;
}
.g4{
fill: #C6EFCE;
}
.g5{
}
]]></style>
</defs>
<g clip-path="url(#c0)">
<path fill-rule="evenodd" d="M77.5,282.5H829V83.2H77.5V282.5Z" class="g0"/>
<path fill-rule="evenodd" d="M77.5,303.4H631.1v-21H77.5v21Z" class="g0"/>
</g>
<path fill-rule="evenodd" d="M631,303.4H812.7v-21H631v21Z" class="g1"/>
<path fill-rule="evenodd" d="M812.5,303.4H829v-21H812.5v21Z" class="g0"/>
<g clip-path="url(#c0)">
<path fill-rule="evenodd" d="M77.5,316.6H829V303.3H77.5v13.3Z" class="g0"/>
<path fill-rule="evenodd" d="M77.5,337.5H218.8v-21H77.5v21Z" class="g0"/>
</g>
<path fill-rule="evenodd" d="M218.6,337.5H812.7v-21H218.6v21Z" class="g0"/>
<path fill-rule="evenodd" d="M812.5,337.5H829v-21H812.5v21Z" class="g0"/>
<g clip-path="url(#c0)">
<path fill-rule="evenodd" d="M77.5,350.7H829V337.4H77.5v13.3Z" class="g0"/>
<path fill-rule="evenodd" d="M77.5,371.6H331.9v-21H77.5v21Z" class="g0"/>
</g>
<path fill-rule="evenodd" d="M331.7,371.6H507.2v-21H331.7v21Z" class="g2"/>
<path fill-rule="evenodd" d="M507,371.6H829v-21H507v21Z" class="g0"/>
<g clip-path="url(#c0)">
<path fill-rule="evenodd" d="M77.5,453.1H829V371.5H77.5v81.6Z" class="g0"/>
<path fill-rule="evenodd" d="M77.5,474H331.9V452.9H77.5V474Z" class="g0"/>
</g>
<path fill-rule="evenodd" d="M331.7,474h481V452.9h-481V474Z" class="g2"/>
<path fill-rule="evenodd" d="M812.5,474H829V452.9H812.5V474Z" class="g0"/>
<g clip-path="url(#c0)">
<path fill-rule="evenodd" d="M77.5,521.3H829V473.8H77.5v47.5Z" class="g0"/>
<path fill-rule="evenodd" d="M77.5,542.2H269.9V521.1H77.5v21.1Z" class="g0"/>
</g>
<path fill-rule="evenodd" d="M331.7,542.2h95.5V521.1H331.7v21.1Z" class="g0"/>
<path fill-rule="evenodd" d="M427.1,542.2h80.1V521.1H427.1v21.1Z" class="g3"/>
<path fill-rule="evenodd" d="M507,542.2H829V521.1H507v21.1Z" class="g0"/>
<g clip-path="url(#c0)">
<path fill-rule="evenodd" d="M77.5,555.4H829V542H77.5v13.4Z" class="g0"/>
<path fill-rule="evenodd" d="M77.5,576.3H218.8V555.2H77.5v21.1Z" class="g0"/>
</g>
<path fill-rule="evenodd" d="M218.6,576.3H427.2V555.2H218.6v21.1Z" class="g1"/>
<path fill-rule="evenodd" d="M427.1,576.3h204V555.2h-204v21.1Z" class="g0"/>
<path fill-rule="evenodd" d="M631,576.3H812.7V555.2H631v21.1Z" class="g1"/>
<path fill-rule="evenodd" d="M812.5,576.3H829V555.2H812.5v21.1Z" class="g0"/>
<g clip-path="url(#c0)">
<path fill-rule="evenodd" d="M77.5,657.7H829V576.1H77.5v81.6Z" class="g0"/>
<path fill-rule="evenodd" d="M77.5,678.6H331.9V657.5H77.5v21.1Z" class="g0"/>
</g>
<path fill-rule="evenodd" d="M331.7,678.6h481V657.5h-481v21.1Z" class="g2"/>
<path fill-rule="evenodd" d="M812.5,678.6H829V657.5H812.5v21.1Z" class="g0"/>
<g clip-path="url(#c0)">
<path fill-rule="evenodd" d="M77.5,725.9H829V678.4H77.5v47.5Z" class="g0"/>
<path fill-rule="evenodd" d="M77.5,746.8H269.9V725.7H77.5v21.1Z" class="g0"/>
</g>
<path fill-rule="evenodd" d="M331.7,746.8h95.5V725.7H331.7v21.1Z" class="g0"/>
<path fill-rule="evenodd" d="M427.1,746.8h80.1V725.7H427.1v21.1Z" class="g4"/>
<path fill-rule="evenodd" d="M507,746.8H829V725.7H507v21.1Z" class="g0"/>
<g clip-path="url(#c0)">
<path fill-rule="evenodd" d="M77.5,760H829V746.6H77.5V760Z" class="g0"/>
<path fill-rule="evenodd" d="M77.5,782.4H218.8V759.8H77.5v22.6Z" class="g0"/>
</g>
<path fill-rule="evenodd" d="M218.6,782.4H427.2V759.8H218.6v22.6Z" class="g1"/>
<path fill-rule="evenodd" d="M427.1,782.4h204V759.8h-204v22.6Z" class="g0"/>
<path fill-rule="evenodd" d="M631,782.4H812.7V759.8H631v22.6Z" class="g1"/>
<path fill-rule="evenodd" d="M812.5,782.4H829V759.8H812.5v22.6Z" class="g0"/>
<g clip-path="url(#c0)">
<path fill-rule="evenodd" d="M77.5,1096.7H829V782.2H77.5v314.5Z" class="g0"/>
</g>
<path fill-rule="evenodd" d="M427.8,883.6H715.7v-1.7H427.8v1.7Z" class="g5"/>
<path fill-rule="evenodd" d="M375.2,921.8H618.7v-1.7H375.2v1.7Z" class="g5"/>
<path fill-rule="evenodd" d="M93.7,167.7h1.8V82.3H93.7v85.4Z" class="g5"/>
<path fill-rule="evenodd" d="M811.6,167.7h1.8V84.2h-1.8v83.5Z" class="g5"/>
<path fill-rule="evenodd" d="M93.7,201.8h1.8V179.1H93.7v22.7Z" class="g5"/>
<path fill-rule="evenodd" d="M95.1,214.7H427.6v-.9H95.1v.9Z" class="g5"/>
<path fill-rule="evenodd" d="M811.6,201.8h1.8V181h-1.8v20.8Z" class="g5"/>
<path fill-rule="evenodd" d="M95.1,235.6H427.6v-.9H95.1v.9Z" class="g5"/>
<path fill-rule="evenodd" d="M94.2,235.6h.9V213.8h-.9v21.8Z" class="g5"/>
<path fill-rule="evenodd" d="M812.1,235.6h1V214.7h-1v20.9Z" class="g5"/>
<path fill-rule="evenodd" d="M94.2,269.7h.9V247.9h-.9v21.8Z" class="g5"/>
<path fill-rule="evenodd" d="M506.6,235.6h.9V213.8h-.9v21.8Z" class="g5"/>
<path fill-rule="evenodd" d="M812.1,269.7h1V248.8h-1v20.9Z" class="g5"/>
<path fill-rule="evenodd" d="M94.2,303.8h.9V282h-.9v21.8Z" class="g5"/>
<path fill-rule="evenodd" d="M218.2,303.8h.9V282.9h-.9v20.9Z" class="g5"/>
<path fill-rule="evenodd" d="M812.1,303.8h1V282.9h-1v20.9Z" class="g5"/>
<path fill-rule="evenodd" d="M94.2,337.9h.9V316.1h-.9v21.8Z" class="g5"/>
<path fill-rule="evenodd" d="M331.4,269.7h.9V248.8h-.9v20.9Z" class="g5"/>
<path fill-rule="evenodd" d="M506.6,303.8h.9V282.9h-.9v20.9Z" class="g5"/>
<path fill-rule="evenodd" d="M568.6,235.6h.9V214.7h-.9v20.9Z" class="g5"/>
<path fill-rule="evenodd" d="M812.1,337.9h1V317h-1v20.9Z" class="g5"/>
<path fill-rule="evenodd" d="M94.2,372h.9V350.2h-.9V372Z" class="g5"/>
<path fill-rule="evenodd" d="M812.1,372h1V351.1h-1V372Z" class="g5"/>
<path fill-rule="evenodd" d="M93.7,406.5h1.8V383.7H93.7v22.8Z" class="g5"/>
<path fill-rule="evenodd" d="M156.2,235.6h.9V214.7h-.9v20.9Z" class="g5"/>
<path fill-rule="evenodd" d="M269.3,372h1V351.1h-1V372Z" class="g5"/>
<path fill-rule="evenodd" d="M95.1,419.3H270.3v-.9H95.1v.9Z" class="g5"/>
<path fill-rule="evenodd" d="M331.4,372h.9V351.1h-.9V372Z" class="g5"/>
<path fill-rule="evenodd" d="M426.7,235.6h.9V214.7h-.9v20.9Z" class="g5"/>
<path fill-rule="evenodd" d="M568.6,372h.9V351.1h-.9V372Z" class="g5"/>
<path fill-rule="evenodd" d="M332.3,419.3H569.5v-.9H332.3v.9Z" class="g5"/>
<path fill-rule="evenodd" d="M630.6,303.8h.9V282.9h-.9v20.9Z" class="g5"/>
<path fill-rule="evenodd" d="M811.6,406.5h1.8V385.6h-1.8v20.9Z" class="g5"/>
<path fill-rule="evenodd" d="M95.1,440.2H270.3v-.9H95.1v.9Z" class="g5"/>
<path fill-rule="evenodd" d="M332.3,440.2H569.5v-.9H332.3v.9Z" class="g5"/>
<path fill-rule="evenodd" d="M94.2,440.2h.9V418.4h-.9v21.8Z" class="g5"/>
<path fill-rule="evenodd" d="M331.4,440.2h.9V418.4h-.9v21.8Z" class="g5"/>
<path fill-rule="evenodd" d="M812.1,440.2h1V419.3h-1v20.9Z" class="g5"/>
<path fill-rule="evenodd" d="M94.2,474.4h.9V452.5h-.9v21.9Z" class="g5"/>
<path fill-rule="evenodd" d="M95.1,487.6H218.2v-1H95.1v1Z" class="g5"/>
<path fill-rule="evenodd" d="M218.2,337.9h.9V317h-.9v20.9Z" class="g5"/>
<path fill-rule="evenodd" d="M812.1,474.4h1V453.5h-1v20.9Z" class="g5"/>
<path fill-rule="evenodd" d="M95.1,508.5H218.2v-1H95.1v1Z" class="g5"/>
<path fill-rule="evenodd" d="M94.2,508.5h.9V486.6h-.9v21.9Z" class="g5"/>
<path fill-rule="evenodd" d="M156.2,440.2h.9V419.3h-.9v20.9Z" class="g5"/>
<path fill-rule="evenodd" d="M95.1,521.7H269.3v-1H95.1v1Z" class="g5"/>
<path fill-rule="evenodd" d="M269.3,440.2h1V419.3h-1v20.9Z" class="g5"/>
<path fill-rule="evenodd" d="M331.4,474.4h.9V453.5h-.9v20.9Z" class="g5"/>
<path fill-rule="evenodd" d="M426.7,440.2h.9V419.3h-.9v20.9Z" class="g5"/>
<path fill-rule="evenodd" d="M270.3,521.7H427.6v-1H270.3v1Z" class="g5"/>
<path fill-rule="evenodd" d="M506.6,372h.9V351.1h-.9V372Z" class="g5"/>
<path fill-rule="evenodd" d="M568.6,440.2h.9V419.3h-.9v20.9Z" class="g5"/>
<path fill-rule="evenodd" d="M812.1,508.5h1V487.6h-1v20.9Z" class="g5"/>
<path fill-rule="evenodd" d="M95.1,542.6H269.3v-1H95.1v1Z" class="g5"/>
<path fill-rule="evenodd" d="M269.3,542.6H427.6v-1H269.3v1Z" class="g5"/>
<path fill-rule="evenodd" d="M94.2,542.6h.9V520.7h-.9v21.9Z" class="g5"/>
<path fill-rule="evenodd" d="M218.2,507.5h.9V486.6h-.9v20.9Z" class="g5"/>
<path fill-rule="evenodd" d="M426.7,542.6h.9V521.7h-.9v20.9Z" class="g5"/>
<path fill-rule="evenodd" d="M95.1,555.8H427.6v-1H95.1v1Z" class="g5"/>
<path fill-rule="evenodd" d="M506.6,542.6h.9V520.7h-.9v21.9Z" class="g5"/>
<path fill-rule="evenodd" d="M630.6,440.2h.9V418.4h-.9v21.8Z" class="g5"/>
<path fill-rule="evenodd" d="M812.1,542.6h1V521.7h-1v20.9Z" class="g5"/>
<path fill-rule="evenodd" d="M95.1,576.7H427.6v-1H95.1v1Z" class="g5"/>
<path fill-rule="evenodd" d="M94.2,576.7h.9V554.8h-.9v21.9Z" class="g5"/>
<path fill-rule="evenodd" d="M812.1,576.7h1V555.8h-1v20.9Z" class="g5"/>
<path fill-rule="evenodd" d="M93.7,611.1h1.8V588.4H93.7v22.7Z" class="g5"/>
<path fill-rule="evenodd" d="M156.2,542.6h.9V521.7h-.9v20.9Z" class="g5"/>
<path fill-rule="evenodd" d="M269.3,541.6h1V520.7h-1v20.9Z" class="g5"/>
<path fill-rule="evenodd" d="M95.1,624H270.3v-1H95.1v1Z" class="g5"/>
<path fill-rule="evenodd" d="M331.4,542.6h.9V521.7h-.9v20.9Z" class="g5"/>
<path fill-rule="evenodd" d="M426.7,576.7h.9V555.8h-.9v20.9Z" class="g5"/>
<path fill-rule="evenodd" d="M568.6,542.6h.9V521.7h-.9v20.9Z" class="g5"/>
<path fill-rule="evenodd" d="M332.3,624H569.5v-1H332.3v1Z" class="g5"/>
<path fill-rule="evenodd" d="M630.6,576.7h.9V555.8h-.9v20.9Z" class="g5"/>
<path fill-rule="evenodd" d="M694.2,440.2h.9V419.3h-.9v20.9Z" class="g5"/>
<path fill-rule="evenodd" d="M811.6,611.1h1.8V590.2h-1.8v20.9Z" class="g5"/>
<path fill-rule="evenodd" d="M95.1,644.9H270.3v-1H95.1v1Z" class="g5"/>
<path fill-rule="evenodd" d="M332.3,644.9H569.5v-1H332.3v1Z" class="g5"/>
<path fill-rule="evenodd" d="M94.2,644.9h.9V623h-.9v21.9Z" class="g5"/>
<path fill-rule="evenodd" d="M331.4,644.9h.9V623h-.9v21.9Z" class="g5"/>
<path fill-rule="evenodd" d="M812.1,644.9h1V624h-1v20.9Z" class="g5"/>
<path fill-rule="evenodd" d="M94.2,679h.9V657.1h-.9V679Z" class="g5"/>
<path fill-rule="evenodd" d="M95.1,692.2H218.2v-.9H95.1v.9Z" class="g5"/>
<path fill-rule="evenodd" d="M218.2,576.7h.9V555.8h-.9v20.9Z" class="g5"/>
<path fill-rule="evenodd" d="M812.1,679h1V658.1h-1V679Z" class="g5"/>
<path fill-rule="evenodd" d="M95.1,713.1H218.2v-.9H95.1v.9Z" class="g5"/>
<path fill-rule="evenodd" d="M94.2,713.1h.9V691.3h-.9v21.8Z" class="g5"/>
<path fill-rule="evenodd" d="M156.2,644.9h.9V624h-.9v20.9Z" class="g5"/>
<path fill-rule="evenodd" d="M95.1,726.3H269.3v-.9H95.1v.9Z" class="g5"/>
<path fill-rule="evenodd" d="M269.3,644.9h1V624h-1v20.9Z" class="g5"/>
<path fill-rule="evenodd" d="M331.4,679h.9V658.1h-.9V679Z" class="g5"/>
<path fill-rule="evenodd" d="M426.7,644.9h.9V624h-.9v20.9Z" class="g5"/>
<path fill-rule="evenodd" d="M270.3,726.3H427.6v-.9H270.3v.9Z" class="g5"/>
<path fill-rule="evenodd" d="M506.6,576.7h.9V554.8h-.9v21.9Z" class="g5"/>
<path fill-rule="evenodd" d="M568.6,644.9h.9V624h-.9v20.9Z" class="g5"/>
<path fill-rule="evenodd" d="M812.1,713.1h1V692.2h-1v20.9Z" class="g5"/>
<path fill-rule="evenodd" d="M95.1,747.2H269.3v-.9H95.1v.9Z" class="g5"/>
<path fill-rule="evenodd" d="M269.3,747.2H427.6v-.9H269.3v.9Z" class="g5"/>
<path fill-rule="evenodd" d="M94.2,747.2h.9V725.4h-.9v21.8Z" class="g5"/>
<path fill-rule="evenodd" d="M218.2,712.2h.9V691.3h-.9v20.9Z" class="g5"/>
<path fill-rule="evenodd" d="M426.7,747.2h.9V726.3h-.9v20.9Z" class="g5"/>
<path fill-rule="evenodd" d="M95.1,760.4H427.6v-.9H95.1v.9Z" class="g5"/>
<path fill-rule="evenodd" d="M506.6,747.2h.9V725.4h-.9v21.8Z" class="g5"/>
<path fill-rule="evenodd" d="M630.6,644.9h.9V623h-.9v21.9Z" class="g5"/>
<path fill-rule="evenodd" d="M812.1,747.2h1V726.3h-1v20.9Z" class="g5"/>
<path fill-rule="evenodd" d="M95.1,782.8H427.6v-1H95.1v1Z" class="g5"/>
<path fill-rule="evenodd" d="M94.2,782.8h.9V759.5h-.9v23.3Z" class="g5"/>
<path fill-rule="evenodd" d="M269.3,746.3h1V725.4h-1v20.9Z" class="g5"/>
<path fill-rule="evenodd" d="M812.1,782.8h1V760.4h-1v22.4Z" class="g5"/>
<path fill-rule="evenodd" d="M93.7,934.6h1.8V794.5H93.7V934.6Z" class="g5"/>
<path fill-rule="evenodd" d="M506.6,782.8h.9V759.5h-.9v23.3Z" class="g5"/>
<path fill-rule="evenodd" d="M811.6,934.6h1.8V817.2h-1.8V934.6Z" class="g5"/>
<path fill-rule="evenodd" d="M77.2,1097h.9V83.2h-.9V1097Z" class="g5"/>
<path fill-rule="evenodd" d="M93.7,1076.5h1.8V953.7H93.7v122.8Z" class="g5"/>
<path fill-rule="evenodd" d="M811.6,1076.5h1.8V982.8h-1.8v93.7Z" class="g5"/>
<path fill-rule="evenodd" d="M828.5,1097h.9V83.2h-.9V1097Z" class="g5"/>
<path fill-rule="evenodd" d="M156.2,747.2h.9V726.3h-.9v20.9Z" class="g5"/>
<path fill-rule="evenodd" d="M426.7,782.8h.9V760.4h-.9v22.4Z" class="g5"/>
<path fill-rule="evenodd" d="M506.1,982.8h1.8V955.5h-1.8v27.3Z" class="g5"/>
<path fill-rule="evenodd" d="M568.6,747.2h.9V726.3h-.9v20.9Z" class="g5"/>
<path fill-rule="evenodd" d="M331.4,747.2h.9V726.3h-.9v20.9Z" class="g5"/>
<path fill-rule="evenodd" d="M218.2,782.8h.9V760.4h-.9v22.4Z" class="g5"/>
<path fill-rule="evenodd" d="M630.6,782.8h.9V760.4h-.9v22.4Z" class="g5"/>
<path fill-rule="evenodd" d="M268.8,817.2h1.8V796.3h-1.8v20.9Z" class="g5"/>
<path fill-rule="evenodd" d="M694.2,644.9h.9V624h-.9v20.9Z" class="g5"/>
<path fill-rule="evenodd" d="M95.5,84.1H813.4V82.3H95.5v1.8Z" class="g5"/>
<path fill-rule="evenodd" d="M95.5,167.7H813.4v-1.8H95.5v1.8Z" class="g5"/>
<path fill-rule="evenodd" d="M95.5,181H813.4v-1.9H95.5V181Z" class="g5"/>
<path fill-rule="evenodd" d="M95.5,201.8H813.4V200H95.5v1.8Z" class="g5"/>
<path fill-rule="evenodd" d="M507.5,214.7H813.1v-.9H507.5v.9Z" class="g5"/>
<path fill-rule="evenodd" d="M507.5,235.6H813.1v-.9H507.5v.9Z" class="g5"/>
<path fill-rule="evenodd" d="M95.1,248.8h718v-.9H95.1v.9Z" class="g5"/>
<path fill-rule="evenodd" d="M95.1,269.7h718v-.9H95.1v.9Z" class="g5"/>
<path fill-rule="evenodd" d="M95.1,282.9h718V282H95.1v.9Z" class="g5"/>
<path fill-rule="evenodd" d="M95.1,303.8h718v-.9H95.1v.9Z" class="g5"/>
<path fill-rule="evenodd" d="M95.1,317h718v-.9H95.1v.9Z" class="g5"/>
<path fill-rule="evenodd" d="M95.1,337.9h718V337H95.1v.9Z" class="g5"/>
<path fill-rule="evenodd" d="M95.1,351.1h718v-.9H95.1v.9Z" class="g5"/>
<path fill-rule="evenodd" d="M95.1,372h718v-.9H95.1v.9Z" class="g5"/>
<path fill-rule="evenodd" d="M95.5,385.6H813.4v-1.9H95.5v1.9Z" class="g5"/>
<path fill-rule="evenodd" d="M95.5,406.5H813.4v-1.9H95.5v1.9Z" class="g5"/>
<path fill-rule="evenodd" d="M631.5,419.3H813v-.9H631.5v.9Z" class="g5"/>
<path fill-rule="evenodd" d="M631.5,440.2H813v-.9H631.5v.9Z" class="g5"/>
<path fill-rule="evenodd" d="M95.1,453.5h718v-1H95.1v1Z" class="g5"/>
<path fill-rule="evenodd" d="M95.1,474.4h718v-1H95.1v1Z" class="g5"/>
<path fill-rule="evenodd" d="M219.1,487.6H813v-1H219.1v1Z" class="g5"/>
<path fill-rule="evenodd" d="M218.2,508.5H813v-1H218.2v1Z" class="g5"/>
<path fill-rule="evenodd" d="M507.5,521.7H813.1v-1H507.5v1Z" class="g5"/>
<path fill-rule="evenodd" d="M507.5,542.6H813.1v-1H507.5v1Z" class="g5"/>
<path fill-rule="evenodd" d="M507.5,555.8H813.1v-1H507.5v1Z" class="g5"/>
<path fill-rule="evenodd" d="M507.5,576.7H813.1v-1H507.5v1Z" class="g5"/>
<path fill-rule="evenodd" d="M95.5,590.2H813.4v-1.8H95.5v1.8Z" class="g5"/>
<path fill-rule="evenodd" d="M95.5,611.1H813.4v-1.8H95.5v1.8Z" class="g5"/>
<path fill-rule="evenodd" d="M631.5,624H813v-1H631.5v1Z" class="g5"/>
<path fill-rule="evenodd" d="M631.5,644.9H813v-1H631.5v1Z" class="g5"/>
<path fill-rule="evenodd" d="M95.1,658.1h718v-1H95.1v1Z" class="g5"/>
<path fill-rule="evenodd" d="M95.1,679h718v-1H95.1v1Z" class="g5"/>
<path fill-rule="evenodd" d="M219.1,692.2H813v-.9H219.1v.9Z" class="g5"/>
<path fill-rule="evenodd" d="M218.2,713.1H813v-.9H218.2v.9Z" class="g5"/>
<path fill-rule="evenodd" d="M507.5,726.3H813.1v-.9H507.5v.9Z" class="g5"/>
<path fill-rule="evenodd" d="M507.5,747.2H813.1v-.9H507.5v.9Z" class="g5"/>
<path fill-rule="evenodd" d="M507.5,760.4H813.1v-.9H507.5v.9Z" class="g5"/>
<path fill-rule="evenodd" d="M507.5,782.8H813.1v-1H507.5v1Z" class="g5"/>
<path fill-rule="evenodd" d="M95.5,796.3H270.6v-1.8H95.5v1.8Z" class="g5"/>
<path fill-rule="evenodd" d="M95.5,817.2H813.4v-1.8H95.5v1.8Z" class="g5"/>
<path fill-rule="evenodd" d="M95.5,934.6H813.4v-1.8H95.5v1.8Z" class="g5"/>
<path fill-rule="evenodd" d="M95.5,955.5H507.9v-1.8H95.5v1.8Z" class="g5"/>
<path fill-rule="evenodd" d="M95.5,982.8H813.4V981H95.5v1.8Z" class="g5"/>
<path fill-rule="evenodd" d="M95.5,1076.5H813.4v-1.8H95.5v1.8Z" class="g5"/>
<path fill-rule="evenodd" d="M78.1,1097H829.4v-.9H78.1v.9Z" class="g5"/>
<image preserveAspectRatio="none" x="97" y="85" width="84" height="80" xlink:href="img/1.png"/>
</svg>