<?xml version="1.0" encoding="UTF-8" standalone="no"?>
<!DOCTYPE svg PUBLIC "-//W3C//DTD SVG 1.1//EN"
"http://www.w3.org/Graphics/SVG/1.1/DTD/svg11.dtd">
<svg viewBox="0 0 935 1210" version="1.1" xmlns="http://www.w3.org/2000/svg" xmlns:xlink="http://www.w3.org/1999/xlink">
<defs>
<style type="text/css"><![CDATA[
.g0_3{
}
.g1_3{
fill: #0000FF;
}
]]></style>
</defs>
<image preserveAspectRatio="none" x="130" y="1113" width="149" height="8" xlink:href="img/1.png"/>
<path fill-rule="evenodd" d="M129.9,79.1h578V77h-578v2.1Z" class="g0_3"/>
<path fill-rule="evenodd" d="M129.9,103.6H246.4v-2.1H129.9v2.1Z" class="g0_3"/>
<path fill-rule="evenodd" d="M148.8,150.4h71.3v-1.9H148.8v1.9Z" class="g0_3"/>
<path fill-rule="evenodd" d="M378.7,150.4h87.7v-1.9H378.7v1.9Z" class="g0_3"/>
<path fill-rule="evenodd" d="M625.4,150.4h73.3v-1.9H625.4v1.9Z" class="g0_3"/>
<path fill-rule="evenodd" d="M749.8,150.4h62v-1.9h-62v1.9Z" class="g0_3"/>
<path fill-rule="evenodd" d="M121.3,129.6h.7v-.9h-.7v.9Z" class="g0_3"/>
<path fill-rule="evenodd" d="M121.3,129.3h.7v-.6h-.7v.6Z" class="g0_3"/>
<path fill-rule="evenodd" d="M122,129.3H247.3v-.6H122v.6Z" class="g0_3"/>
<path fill-rule="evenodd" d="M247.3,129.6h.6v-.3h-.6v.3Z" class="g0_3"/>
<path fill-rule="evenodd" d="M247.3,129.3h.6v-.6h-.6v.6Z" class="g0_3"/>
<path fill-rule="evenodd" d="M247.9,129.3H597.3v-.6H247.9v.6Z" class="g0_3"/>
<path fill-rule="evenodd" d="M597.3,129.6h.6v-.3h-.6v.3Z" class="g0_3"/>
<path fill-rule="evenodd" d="M597.3,129.3h.6v-.6h-.6v.6Z" class="g0_3"/>
<path fill-rule="evenodd" d="M597.9,129.3H726.2v-.6H597.9v.6Z" class="g0_3"/>
<path fill-rule="evenodd" d="M726.2,129.6h.6v-.3h-.6v.3Z" class="g0_3"/>
<path fill-rule="evenodd" d="M726.2,129.3h.6v-.6h-.6v.6Z" class="g0_3"/>
<path fill-rule="evenodd" d="M726.8,129.3H834.7v-.6H726.8v.6Z" class="g0_3"/>
<path fill-rule="evenodd" d="M834.7,129.6h.7v-.9h-.7v.9Z" class="g0_3"/>
<path fill-rule="evenodd" d="M834.7,129.3h.7v-.6h-.7v.6Z" class="g0_3"/>
<path fill-rule="evenodd" d="M121.3,150.7h.7V129.6h-.7v21.1Z" class="g0_3"/>
<path fill-rule="evenodd" d="M247.3,150.7h.6V129.6h-.6v21.1Z" class="g0_3"/>
<path fill-rule="evenodd" d="M597.3,150.7h.6V129.6h-.6v21.1Z" class="g0_3"/>
<path fill-rule="evenodd" d="M726.2,150.7h.6V129.6h-.6v21.1Z" class="g0_3"/>
<path fill-rule="evenodd" d="M834.7,150.7h.7V129.6h-.7v21.1Z" class="g0_3"/>
<path fill-rule="evenodd" d="M255.8,172.1H550.2v-1.9H255.8v1.9Z" class="g0_3"/>
<path fill-rule="evenodd" d="M605.8,172.1h80.4v-1.9H605.8v1.9Z" class="g0_3"/>
<path fill-rule="evenodd" d="M734.8,172.1h77.3v-1.9H734.8v1.9Z" class="g0_3"/>
<path fill-rule="evenodd" d="M121.3,151.6h.7v-.9h-.7v.9Z" class="g0_3"/>
<path fill-rule="evenodd" d="M122,151.3H247.3v-.6H122v.6Z" class="g0_3"/>
<path fill-rule="evenodd" d="M247.3,151.6h.6v-.9h-.6v.9Z" class="g0_3"/>
<path fill-rule="evenodd" d="M247.9,151.3H597.3v-.6H247.9v.6Z" class="g0_3"/>
<path fill-rule="evenodd" d="M597.3,151.6h.6v-.9h-.6v.9Z" class="g0_3"/>
<path fill-rule="evenodd" d="M597.9,151.3H726.2v-.6H597.9v.6Z" class="g0_3"/>
<path fill-rule="evenodd" d="M726.2,151.6h.6v-.9h-.6v.9Z" class="g0_3"/>
<path fill-rule="evenodd" d="M726.8,151.3H834.7v-.6H726.8v.6Z" class="g0_3"/>
<path fill-rule="evenodd" d="M834.7,151.6h.7v-.9h-.7v.9Z" class="g0_3"/>
<path fill-rule="evenodd" d="M121.3,185.5h.7V151.6h-.7v33.9Z" class="g0_3"/>
<path fill-rule="evenodd" d="M247.3,185.5h.6V151.6h-.6v33.9Z" class="g0_3"/>
<path fill-rule="evenodd" d="M597.3,185.5h.6V151.6h-.6v33.9Z" class="g0_3"/>
<path fill-rule="evenodd" d="M726.2,185.5h.6V151.6h-.6v33.9Z" class="g0_3"/>
<path fill-rule="evenodd" d="M834.7,185.5h.7V151.6h-.7v33.9Z" class="g0_3"/>
<path fill-rule="evenodd" d="M255.8,206.9H446.3v-1.8H255.8v1.8Z" class="g0_3"/>
<path fill-rule="evenodd" d="M605.8,206.9h110v-1.8h-110v1.8Z" class="g0_3"/>
<path fill-rule="evenodd" d="M734.8,206.9h81.6v-1.8H734.8v1.8Z" class="g0_3"/>
<path fill-rule="evenodd" d="M121.3,186.4h.7v-.9h-.7v.9Z" class="g0_3"/>
<path fill-rule="evenodd" d="M122,186.1H247.3v-.6H122v.6Z" class="g0_3"/>
<path fill-rule="evenodd" d="M247.3,186.4h.6v-.9h-.6v.9Z" class="g0_3"/>
<path fill-rule="evenodd" d="M247.9,186.1H597.3v-.6H247.9v.6Z" class="g0_3"/>
<path fill-rule="evenodd" d="M597.3,186.4h.6v-.9h-.6v.9Z" class="g0_3"/>
<path fill-rule="evenodd" d="M597.9,186.1H726.2v-.6H597.9v.6Z" class="g0_3"/>
<path fill-rule="evenodd" d="M726.2,186.4h.6v-.9h-.6v.9Z" class="g0_3"/>
<path fill-rule="evenodd" d="M726.8,186.1H834.7v-.6H726.8v.6Z" class="g0_3"/>
<path fill-rule="evenodd" d="M834.7,186.4h.7v-.9h-.7v.9Z" class="g0_3"/>
<path fill-rule="evenodd" d="M121.3,218.5h.7V186.4h-.7v32.1Z" class="g0_3"/>
<path fill-rule="evenodd" d="M247.3,218.5h.6V186.4h-.6v32.1Z" class="g0_3"/>
<path fill-rule="evenodd" d="M597.3,218.5h.6V186.4h-.6v32.1Z" class="g0_3"/>
<path fill-rule="evenodd" d="M726.2,218.5h.6V186.4h-.6v32.1Z" class="g0_3"/>
<path fill-rule="evenodd" d="M834.7,218.5h.7V186.4h-.7v32.1Z" class="g0_3"/>
<path fill-rule="evenodd" d="M255.8,239.9H589.3v-1.8H255.8v1.8Z" class="g0_3"/>
<path fill-rule="evenodd" d="M255.8,261H404.7v-1.8H255.8V261Z" class="g0_3"/>
<path fill-rule="evenodd" d="M605.8,239.9h62v-1.8h-62v1.8Z" class="g0_3"/>
<path fill-rule="evenodd" d="M734.8,239.9h81.6v-1.8H734.8v1.8Z" class="g0_3"/>
<path fill-rule="evenodd" d="M121.3,219.4h.7v-.9h-.7v.9Z" class="g0_3"/>
<path fill-rule="evenodd" d="M122,219.1H247.3v-.6H122v.6Z" class="g0_3"/>
<path fill-rule="evenodd" d="M247.3,219.4h.6v-.9h-.6v.9Z" class="g0_3"/>
<path fill-rule="evenodd" d="M247.9,219.1H597.3v-.6H247.9v.6Z" class="g0_3"/>
<path fill-rule="evenodd" d="M597.3,219.4h.6v-.9h-.6v.9Z" class="g0_3"/>
<path fill-rule="evenodd" d="M597.9,219.1H726.2v-.6H597.9v.6Z" class="g0_3"/>
<path fill-rule="evenodd" d="M726.2,219.4h.6v-.9h-.6v.9Z" class="g0_3"/>
<path fill-rule="evenodd" d="M726.8,219.1H834.7v-.6H726.8v.6Z" class="g0_3"/>
<path fill-rule="evenodd" d="M834.7,219.4h.7v-.9h-.7v.9Z" class="g0_3"/>
<path fill-rule="evenodd" d="M121.3,261.3h.7V219.4h-.7v41.9Z" class="g0_3"/>
<path fill-rule="evenodd" d="M247.3,261.3h.6V219.4h-.6v41.9Z" class="g0_3"/>
<path fill-rule="evenodd" d="M597.3,261.3h.6V219.4h-.6v41.9Z" class="g0_3"/>
<path fill-rule="evenodd" d="M726.2,261.3h.6V219.4h-.6v41.9Z" class="g0_3"/>
<path fill-rule="evenodd" d="M834.7,261.3h.7V219.4h-.7v41.9Z" class="g0_3"/>
<path fill-rule="evenodd" d="M255.8,283H519.6v-1.8H255.8V283Z" class="g0_3"/>
<path fill-rule="evenodd" d="M605.8,283h80.4v-1.8H605.8V283Z" class="g0_3"/>
<path fill-rule="evenodd" d="M734.8,283h81.6v-1.8H734.8V283Z" class="g0_3"/>
<path fill-rule="evenodd" d="M121.3,262.2h.7v-.9h-.7v.9Z" class="g0_3"/>
<path fill-rule="evenodd" d="M122,261.9H247.3v-.6H122v.6Z" class="g0_3"/>
<path fill-rule="evenodd" d="M247.3,262.2h.6v-.9h-.6v.9Z" class="g0_3"/>
<path fill-rule="evenodd" d="M247.9,261.9H597.3v-.6H247.9v.6Z" class="g0_3"/>
<path fill-rule="evenodd" d="M597.3,262.2h.6v-.9h-.6v.9Z" class="g0_3"/>
<path fill-rule="evenodd" d="M597.9,261.9H726.2v-.6H597.9v.6Z" class="g0_3"/>
<path fill-rule="evenodd" d="M726.2,262.2h.6v-.9h-.6v.9Z" class="g0_3"/>
<path fill-rule="evenodd" d="M726.8,261.9H834.7v-.6H726.8v.6Z" class="g0_3"/>
<path fill-rule="evenodd" d="M834.7,262.2h.7v-.9h-.7v.9Z" class="g0_3"/>
<path fill-rule="evenodd" d="M121.3,294.3h.7V262.2h-.7v32.1Z" class="g0_3"/>
<path fill-rule="evenodd" d="M247.3,294.3h.6V262.2h-.6v32.1Z" class="g0_3"/>
<path fill-rule="evenodd" d="M597.3,294.3h.6V262.2h-.6v32.1Z" class="g0_3"/>
<path fill-rule="evenodd" d="M726.2,294.3h.6V262.2h-.6v32.1Z" class="g0_3"/>
<path fill-rule="evenodd" d="M834.7,294.3h.7V262.2h-.7v32.1Z" class="g0_3"/>
<path fill-rule="evenodd" d="M255.8,315.7H457.6v-1.8H255.8v1.8Z" class="g0_3"/>
<path fill-rule="evenodd" d="M605.8,315.7h72.4v-1.8H605.8v1.8Z" class="g0_3"/>
<path fill-rule="evenodd" d="M734.8,315.7h81.6v-1.8H734.8v1.8Z" class="g0_3"/>
<path fill-rule="evenodd" d="M121.3,295.2h.7v-.9h-.7v.9Z" class="g0_3"/>
<path fill-rule="evenodd" d="M122,294.9H247.3v-.6H122v.6Z" class="g0_3"/>
<path fill-rule="evenodd" d="M247.3,295.2h.6v-.9h-.6v.9Z" class="g0_3"/>
<path fill-rule="evenodd" d="M247.9,294.9H597.3v-.6H247.9v.6Z" class="g0_3"/>
<path fill-rule="evenodd" d="M597.3,295.2h.6v-.9h-.6v.9Z" class="g0_3"/>
<path fill-rule="evenodd" d="M597.9,294.9H726.2v-.6H597.9v.6Z" class="g0_3"/>
<path fill-rule="evenodd" d="M726.2,295.2h.6v-.9h-.6v.9Z" class="g0_3"/>
<path fill-rule="evenodd" d="M726.8,294.9H834.7v-.6H726.8v.6Z" class="g0_3"/>
<path fill-rule="evenodd" d="M834.7,295.2h.7v-.9h-.7v.9Z" class="g0_3"/>
<path fill-rule="evenodd" d="M121.3,327.6h.7V295.2h-.7v32.4Z" class="g0_3"/>
<path fill-rule="evenodd" d="M121.3,328.2h.7v-.6h-.7v.6Z" class="g0_3"/>
<path fill-rule="evenodd" d="M121.3,328.2h.7v-.6h-.7v.6Z" class="g0_3"/>
<path fill-rule="evenodd" d="M122,328.2H247.3v-.6H122v.6Z" class="g0_3"/>
<path fill-rule="evenodd" d="M247.3,327.6h.6V295.2h-.6v32.4Z" class="g0_3"/>
<path fill-rule="evenodd" d="M247.3,328.2h.6v-.6h-.6v.6Z" class="g0_3"/>
<path fill-rule="evenodd" d="M247.9,328.2H597.3v-.6H247.9v.6Z" class="g0_3"/>
<path fill-rule="evenodd" d="M597.3,327.6h.6V295.2h-.6v32.4Z" class="g0_3"/>
<path fill-rule="evenodd" d="M597.3,328.2h.6v-.6h-.6v.6Z" class="g0_3"/>
<path fill-rule="evenodd" d="M597.9,328.2H726.2v-.6H597.9v.6Z" class="g0_3"/>
<path fill-rule="evenodd" d="M726.2,327.6h.6V295.2h-.6v32.4Z" class="g0_3"/>
<path fill-rule="evenodd" d="M726.2,328.2h.6v-.6h-.6v.6Z" class="g0_3"/>
<path fill-rule="evenodd" d="M726.8,328.2H834.7v-.6H726.8v.6Z" class="g0_3"/>
<path fill-rule="evenodd" d="M834.7,327.6h.7V295.2h-.7v32.4Z" class="g0_3"/>
<path fill-rule="evenodd" d="M834.7,328.2h.7v-.6h-.7v.6Z" class="g0_3"/>
<path fill-rule="evenodd" d="M834.7,328.2h.7v-.6h-.7v.6Z" class="g0_3"/>
<path fill-rule="evenodd" d="M582,390.9H826.8v-1.2H582v1.2Z" class="g1_3"/>
<path fill-rule="evenodd" d="M129.9,412H367.7v-1.2H129.9V412Z" class="g1_3"/>
</svg>